HIERARCHY
ROOT Hips
{
  OFFSET 131.481 97.9271 -207.785
  CHANNELS 6 Xposition Yposition Zposition Zrotation Xrotation Yrotation
  JOINT RightUpLeg
  {
    OFFSET -8.9458 -8.66707 0.101652
    CHANNELS 3 Zrotation Xrotation Yrotation
    JOINT RightLeg
    {
      OFFSET 0 -44.4227 1.3727
      CHANNELS 3 Zrotation Xrotation Yrotation
      JOINT RightFoot
      {
        OFFSET 0.253549 -42.0924 -1.46059
        CHANNELS 3 Zrotation Xrotation Yrotation
        JOINT RightToes
        {
          OFFSET 0.04 -4.41509 8.4991
          CHANNELS 3 Zrotation Xrotation Yrotation
          End Site
          {
            OFFSET -0.08 -0.137448 9.77979
          }
        }
      }
    }
  }
  JOINT Spine
  {
    OFFSET 0 11.8905 0
    CHANNELS 3 Zrotation Xrotation Yrotation
    JOINT Spine1
    {
      OFFSET 0 25.6574 0.127663
      CHANNELS 3 Zrotation Xrotation Yrotation
      JOINT HEad
      {
        OFFSET 0 8.73416 0.011341
        CHANNELS 3 Zrotation Xrotation Yrotation
        End Site
        {
          OFFSET -0.29 12.7742 2.51395
        }
      }
      JOINT LeftShoulder1
      {
        OFFSET 8.99 -0.362252 -0.22
        CHANNELS 3 Zrotation Xrotation Yrotation
        JOINT LeftArm
        {
          OFFSET 10.2827 -0.00338 0.322123
          CHANNELS 3 Zrotation Xrotation Yrotation
          JOINT LeftForeArm
          {
            OFFSET 32.7669 0.099144 -1.42434
            CHANNELS 3 Zrotation Xrotation Yrotation
            JOINT LeftHand
            {
              OFFSET 27.5643 0.085362 1.02216
              CHANNELS 3 Zrotation Xrotation Yrotation
              End Site
              {
                OFFSET 16.7443 -0.6 1.50291
              }
            }
          }
        }
      }
      JOINT RightShoulder
      {
        OFFSET -8.99 -0.362252 -0.22
        CHANNELS 3 Zrotation Xrotation Yrotation
        JOINT RightArm
        {
          OFFSET -10.2827 -0.00338 0.322123
          CHANNELS 3 Zrotation Xrotation Yrotation
          JOINT RightForeArm
          {
            OFFSET -32.8971 0.099144 -1.42434
            CHANNELS 3 Zrotation Xrotation Yrotation
            JOINT RightHand
            {
              OFFSET -27.4921 0.085362 1.02216
              CHANNELS 3 Zrotation Xrotation Yrotation
              End Site
              {
                OFFSET -16.6312 -0.6 1.50291
              }
            }
          }
        }
      }
    }
  }
  JOINT LeftUpLeg
  {
    OFFSET 8.9458 -8.66707 0.101652
    CHANNELS 3 Zrotation Xrotation Yrotation
    JOINT LeftLeg
    {
      OFFSET 0 -44.4227 1.3727
      CHANNELS 3 Zrotation Xrotation Yrotation
      JOINT LeftFoot
      {
        OFFSET -0.253549 -42.0924 -1.46059
        CHANNELS 3 Zrotation Xrotation Yrotation
        JOINT LeftToes
        {
          OFFSET -0.04 -4.41509 8.4991
          CHANNELS 3 Zrotation Xrotation Yrotation
          End Site
          {
            OFFSET 0.08 -0.047448 9.77979
          }
        }
      }
    }
  }
}
MOTION
Frames:	17
Frame Time:	0.0166667
93.162 99.4352 -244.223 -10.7682 5.16345 124.352 -2.91881 -15.2134 -18.9202 -3.60533 38.8109 26.9624 57.0081 3.47606 -0.990512 0.0462048 0.000533403 0.662642 4.35988 17.9893 19.8446 0.0222755 -0.021178 -0.0196698 -22.5288 1.20715 24.3702 2.78299e-015 9.93923e-016 -0 143.346 -46.264 157.785 -98.6703 54.2241 -37.2806 8.13859 15.6304 -2.72808 14.7962 1.44099 5.83863 74.1657 -9.40085 83.3368 51.6588 56.2261 68.3668 -9.16054 21.3751 0.466262 -1.83179 -41.9777 28.4693 -1.30327 39.0747 -21.74 -8.14777 -4.60566 -0.949474 -1.18447e-009 1.5602e-007 -4.8713e-009 
94.9728 99.9286 -242.067 -10.6653 5.19417 124.606 -2.94274 -17.9963 -20.5605 -4.57276 47.316 26.816 31.4536 1.03343 -0.274883 0.0462048 0.000533403 0.662642 0.978095 17.5483 19.9375 0.0236766 -0.0169894 -0.0158661 -23.6881 1.30106 25.4161 -0 -1.59028e-015 -0 145.812 -46.0448 158.286 -97.5019 54.4287 -38.1736 7.52822 16.212 -2.79366 17.0043 1.5762 5.66037 74.8702 -6.70929 81.9413 49.6629 58.7375 68.9356 -10.335 22.8076 -0.158534 -5.26001 -39.8632 24.7793 0.0758846 33.8414 -22.3329 -0.360796 -4.54583 -0.168205 -1.18447e-009 1.5602e-007 -4.87132e-009 
96.8631 99.9157 -239.991 -10.4827 5.37625 124.904 -3.01092 -19.9828 -21.3441 -3.14591 54.18 22.527 5.93993 0.60034 -0.814782 0.0462048 0.000533403 0.662642 -2.07582 16.9246 19.466 0.0243263 -0.0122796 -0.0104086 -25.8458 2.63564 26.7997 -2.78299e-015 -2.38542e-015 -0 147.394 -48.5934 161.378 -92.4304 57.9849 -43.0692 7.42809 15.708 -2.42398 19.0425 2.19719 5.84564 75.3983 -4.21978 80.5332 47.2555 60.924 69.7617 -11.6563 22.8173 0.390918 -7.85515 -37.94 21.7456 2.7567 30.1262 -23.252 6.88627 -4.49553 0.500469 -1.18446e-009 1.5602e-007 -4.87132e-009 
98.7408 99.2254 -238.1 -10.1932 5.66184 125.213 -5.91265 -20.769 -20.9365 -0.833002 58.2901 14.2416 14.1509 2.57884 -0.120187 0.0462048 0.000533403 0.662642 -4.76766 16.1799 18.5406 0.0243296 -0.00771979 -0.00653011 -27.801 3.97505 28.6649 4.77083e-015 1.59028e-015 -0 148.703 -53.0488 165.839 -82.5189 62.4089 -52.9354 6.63785 16.0062 -2.04916 21.1476 3.30718 6.23478 72.8658 -4.27625 79.2623 45.2798 61.4887 73.1082 -13.1838 23.772 0.397243 -9.84697 -37.0461 19.2531 6.7959 30.1488 -24.4378 14.3094 -4.65673 1.3192 -1.18447e-009 1.5602e-007 -4.87131e-009 
100.718 98.8915 -236.362 -9.77524 5.99683 125.491 -7.83637 -22.45 -20.1819 1.63527 63.2551 4.96837 -2.87764 1.02675 -0.420185 0.0462048 0.000533403 0.662642 -7.07469 15.3761 17.2739 0.0237934 -0.000599999 -0.00122101 -29.6247 5.25162 30.9334 7.95139e-016 -2.38542e-015 -6.36111e-015 149.019 -56.1268 167.013 -81.7593 59.8024 -53.6796 4.92681 20.3392 -3.12929 23.2066 4.81296 6.94523 68.9285 -5.83181 78.3105 44.2842 61.0558 76.389 -15.1441 23.8004 1.52988 -11.5075 -35.4334 17.07 10.0135 28.8668 -25.0406 21.7534 -4.04876 1.77944 -1.18446e-009 1.5602e-007 -4.87131e-009 
102.654 98.4815 -234.747 -9.22632 6.32923 125.711 -11.4648 -23.7932 -18.4432 3.25762 66.5025 -3.4297 -0.869433 2.26726 -0.11711 0.0462048 0.000533403 0.662642 -8.9623 14.5386 15.7531 0.0228234 -0.000599999 -0.00122101 -31.3789 6.41946 33.525 7.95139e-016 -7.15625e-015 -6.36111e-015 148.22 -58.3149 166.013 -81.5109 58.1546 -54.3694 3.61502 23.0168 -3.39237 24.7312 6.56599 7.75603 67.2329 -4.32414 77.7857 42.0136 61.4096 76.9154 -17.1462 24.2594 2.48811 -12.6824 -34.1331 15.2878 12.6735 28.2282 -25.353 29.5806 -3.47125 2.17098 -1.18446e-009 1.5602e-007 -4.87131e-009 
104.548 98.2223 -233.27 -8.56232 6.61962 125.864 -14.5294 -25.3555 -16.1103 2.60402 68.9537 -8.34594 -6.92988 1.59664 -0.130901 0.0462048 0.000533403 0.662642 -10.4312 14.0049 14.3889 0.0215267 -0.000599999 -0.00122101 -33.1097 7.34899 35.8805 0 0 -0 147.207 -59.8183 164.524 -81.5975 57.2308 -54.7927 3.17858 24.058 -3.20159 25.6672 8.03477 8.55308 66.8557 -1.96469 77.5725 39.7812 61.7792 75.8901 -19.0192 24.13 3.88651 -13.3731 -32.6251 13.8726 14.4336 27.429 -25.2816 37.6799 -2.63361 2.30107 -1.18446e-009 1.5602e-007 -4.87132e-009 
106.379 98.1025 -231.876 -7.82342 6.85724 125.964 -18.3208 -26.852 -12.9045 -1.12845 70.3925 -8.25961 -2.13547 1.57127 -0.140698 0.0462048 0.000533403 0.662642 -11.4705 13.7174 13.1718 0.0200095 -0.000599999 -0.00122101 -34.8018 8.07848 37.9562 -1.59028e-015 6.36111e-015 3.18055e-015 146.251 -60.8698 163.073 -81.8704 56.7827 -54.901 2.86921 24.6436 -2.9468 25.919 9.18671 9.24957 66.1755 -4.56407 78.3303 43.068 60.7772 74.3694 -18.8661 24.1319 4.09264 -13.5405 -30.8713 12.805 15.2519 26.3763 -24.8848 45.9024 -1.61234 2.08093 -1.18447e-009 1.5602e-007 -4.87131e-009 
108.119 98.0651 -230.557 -7.04626 7.03224 126.03 -20.8644 -28.3277 -9.73567 -10.4723 69.916 -1.19758 -0.516954 0.732626 -0.101443 0.0462048 0.000533403 0.662642 -12.0849 13.6231 12.0855 0.0183779 -0.000599999 -0.00122101 -36.4242 8.65263 39.7199 0 0 -3.18055e-015 145.523 -61.6232 161.927 -82.2128 56.5704 -54.7428 3.01534 24.6215 -2.68176 25.7481 10.0778 9.89586 66.1011 -6.70217 78.9302 45.2166 59.7292 73.4188 -17.9649 23.7411 4.10197 -13.2183 -28.9046 12.0354 15.2272 25.0443 -24.2887 54.0867 -0.522319 1.49861 -1.18446e-009 1.5602e-007 -4.87131e-009 
109.763 98.0847 -229.261 -6.26256 7.13787 126.078 -22.9256 -29.5964 -6.51801 -20.8754 66.8733 8.33293 6.04015 -0.155195 -0.193449 0.0462048 0.000533403 0.662642 -12.308 13.6714 11.1141 0.016738 -0.000599999 -0.00122101 -37.9315 9.11992 41.1556 -1.59028e-015 0 -0 145.108 -62.1773 161.22 -82.565 56.4542 -54.3739 3.13983 24.5335 -2.45539 25.3232 10.7682 10.4936 66.2979 -8.59384 79.4096 46.7235 58.73 72.8355 -16.9966 23.3955 4.07382 -12.4027 -26.6989 11.5304 14.4255 23.2569 -23.634 62.035 0.612751 0.5039 -1.18447e-009 1.5602e-007 -4.87131e-009 
111.307 98.0729 -227.94 -5.49904 7.16814 126.123 -24.1022 -30.6148 -3.35998 -27.3994 61.3308 15.2573 10.6121 -1.23861 0.0100613 0.0462048 0.000533403 0.662642 -12.1985 13.8125 10.248 0.0141369 -0.000599999 -0.00122101 -39.2744 9.52557 42.26 1.59028e-015 -1.59028e-015 6.36111e-015 145.044 -62.5895 161.019 -82.8853 56.3568 -53.8531 3.51438 24.1996 -2.24904 24.6489 11.2807 11.0469 66.6888 -10.2458 79.8086 47.8037 57.8593 72.4325 -15.6553 22.9137 3.88669 -11.1597 -24.3986 11.2373 13.1065 21.1157 -23.1364 69.5594 1.71148 -0.8392 -1.18446e-009 1.5602e-007 -4.87131e-009 
112.827 97.9546 -226.516 -4.77069 7.11723 126.182 -25.0137 -31.2578 -0.370313 -28.9945 55.9302 17.784 16.0226 -2.19765 0.257476 0.0462048 0.000533403 0.662642 -11.8253 14.0031 9.47711 0.0101163 -0.000599999 -0.00122101 -40.405 9.90559 43.0415 1.59028e-015 0 -3.18055e-015 145.356 -62.8863 161.363 -83.1443 56.2519 -53.2355 3.87505 23.9101 -2.10133 23.7094 11.6141 11.5661 67.2559 -11.6647 80.1628 48.5915 57.1217 72.1131 -14.4492 22.5121 3.73543 -9.5242 -22.1515 11.1189 11.5511 18.8126 -22.9629 76.4543 2.68836 -2.39042 -1.18446e-009 1.5602e-007 -4.87131e-009 
114.368 97.7622 -225.016 -4.06611 6.94805 126.285 -25.7706 -30.4992 2.82802 -27.1371 50.3261 17.1859 20.2748 -3.13022 0.643819 0.0462048 0.000533403 0.662642 -11.2067 14.2036 8.77867 0.00569004 -0.000599999 -0.00122101 -41.2867 10.286 43.5193 1.59028e-015 -7.95139e-016 3.18055e-015 146.081 -63.0773 162.25 -83.3071 56.1207 -52.5922 4.3206 23.599 -2.04869 22.5991 11.7808 12.0526 67.917 -12.8771 80.4939 49.1789 56.4995 71.835 -13.2378 22.0913 3.61302 -7.52895 -19.8987 11.1223 9.81371 16.2483 -23.1691 82.6529 3.58406 -4.14841 -1.18446e-009 1.5602e-007 -4.87131e-009 
115.998 97.4993 -223.479 -3.38148 6.68052 126.461 -26.4625 -28.4728 6.11056 -24.2668 46.3749 14.6202 23.7318 -3.74204 0.987784 0.0462048 0.000533403 0.662642 -10.3975 14.3982 8.13899 0.00569004 -0.000599999 -0.00122101 -41.9001 10.6835 43.7218 -0 0 3.18055e-015 147.248 -63.1636 163.638 -83.3454 55.9421 -51.9887 4.67663 23.3897 -2.06567 21.4213 11.8032 12.4906 68.612 -13.9013 80.8334 49.63 55.959 71.5896 -12.2744 21.7657 3.6027 -5.28102 -17.6932 11.1949 8.07636 13.6088 -23.7541 88.0863 4.34978 -5.94974 -1.18446e-009 1.5602e-007 -4.87131e-009 
117.665 97.1912 -221.91 -2.72171 6.33223 126.719 -26.9242 -26.3327 9.04181 -21.0865 44.0938 11.57 25.8598 -4.27318 1.32021 0.0462048 0.000533403 0.662642 -9.44395 14.5643 7.55666 0.00569004 -0.000599999 -0.00122101 -40.735 11.0997 42.8753 1.59028e-015 0 3.18055e-015 148.855 -63.1446 165.451 -83.2523 55.695 -51.4727 4.9808 23.1899 -2.12372 20.2607 11.7171 12.8522 69.3178 -14.7394 81.2309 49.997 55.473 71.3697 -11.415 21.4582 3.65164 -2.87631 -15.5113 11.2919 6.33504 10.809 -24.7019 92.7635 5.05891 -7.83106 -1.18446e-009 1.5602e-007 -4.87131e-009 
119.308 96.8788 -220.327 -2.08535 5.92483 127.064 -27.168 -24.1686 11.6059 -17.5908 42.5746 8.22655 26.8453 -4.74343 1.56347 0.0462048 0.000533403 0.662642 -8.37516 14.6956 7.03066 0.00569004 -0.000599999 -0.00122101 -39.5442 11.5225 41.9233 1.76556e-031 -3.18055e-015 3.18055e-015 150.835 -63.0214 167.595 -83.0582 55.3826 -51.0544 5.14911 23.0021 -2.14 19.1516 11.5674 13.1065 70.0496 -15.3781 81.7417 50.3195 55.0278 71.1602 -10.7362 21.2039 3.72272 -0.376153 -13.1272 11.3705 4.40078 7.38529 -26.0962 96.7461 5.88105 -10.0704 -1.18447e-009 1.5602e-007 -4.87131e-009 
120.959 96.5844 -218.714 -1.4628 5.47653 127.488 -27.383 -22.2617 13.6788 -10.9713 42.0851 4.34584 24.7329 -5.2004 1.64146 0.0462048 0.000533403 0.662642 -7.21215 14.7978 6.56067 0.00569004 -0.000599999 -0.00122101 -38.3565 11.9391 40.8953 7.06225e-031 -3.18055e-015 1.27222e-014 153.036 -62.8043 169.961 -82.8287 55.0376 -50.71 5.2471 22.735 -2.06587 18.0959 11.4022 13.2274 70.8334 -15.7962 82.3987 50.62 54.6302 70.939 -10.107 20.9342 3.7223 2.19133 -10.3854 11.3997 2.20713 3.05575 -28.0685 100.02 6.91907 -12.8306 -1.18446e-009 1.5602e-007 -4.87131e-009 
